<?xml version="1.0" encoding="UTF-8" standalone="no"?>
<!-- Created with Inkscape (http://www.inkscape.org/) -->

<svg
   width="199.44278mm"
   height="105.11918mm"
   viewBox="0 0 199.44278 105.11918"
   version="1.1"
   id="svg5"
   inkscapeVersion="1.2.2 (732a01da63, 2022-12-09)"
   sodipodiDocname="homepage-icon.svg"
   xmlnsInkscape="http://www.inkscape.org/namespaces/inkscape"
   xmlnsSodipodi="http://sodipodi.sourceforge.net/DTD/sodipodi-0.dtd"
   xmlnsSvg="http://www.w3.org/2000/svg"
   inkscapeExport-filename="homepage-icon.svg"
   inkscapeExport-xdpi="96"
   inkscapeExport-ydpi="96"
   xmlns="http://www.w3.org/2000/svg">
  <sodipodiNamedview
     id="namedview28"
     pagecolor="#ffffff"
     bordercolor="#000000"
     borderopacity="0.25"
     inkscapeShowpageshadow="2"
     inkscapePageopacity="0.0"
     inkscapePagecheckerboard="0"
     inkscapeDeskcolor="#d1d1d1"
     inkscapeDocument-units="mm"
     showgrid="false" />
  <sodipodiNamedview
     id="namedview28"
     pagecolor="#ffffff"
     bordercolor="#000000"
     borderopacity="0.25"
     inkscapeShowpageshadow="2"
     inkscapePageopacity="0.0"
     inkscapePagecheckerboard="0"
     inkscapeDeskcolor="#d1d1d1"
     inkscapeDocument-units="mm"
     showgrid="false"
     inkscapeZoom="0.72515432"
     inkscapeCx="313.72632"
     inkscapeCy="200.64695"
     inkscapeWindow-width="1920"
     inkscapeWindow-height="1001"
     inkscapeWindow-x="-9"
     inkscapeWindow-y="-9"
     inkscapeWindow-maximized="1"
     inkscapeCurrent-layer="svg5" />
  <sodipodiNamedview
     id="namedview7"
     pagecolor="#ffffff"
     bordercolor="#000000"
     borderopacity="0.25"
     inkscapeShowpageshadow="2"
     inkscapePageopacity="0.0"
     inkscapePagecheckerboard="0"
     inkscapeDeskcolor="#d1d1d1"
     inkscapeDocument-units="mm"
     showgrid="false"
     inkscapeZoom="1.4503086"
     inkscapeCx="400.60438"
     inkscapeCy="564.36263"
     inkscapeWindow-width="1920"
     inkscapeWindow-height="1001"
     inkscapeWindow-x="-9"
     inkscapeWindow-y="-9"
     inkscapeWindow-maximized="1"
     inkscapeCurrent-layer="layer1">
    <inkscapeGrid
       type="xygrid"
       id="grid234" />
  </sodipodiNamedview>
  <defs
     id="defs2" />
  <g
     inkscapeLabel="Layer 1"
     inkscapeGroupmode="layer"
     id="layer1"
     transform="matrix(1.216803,0,0,1.20684,-15.488393,-129.73849)">
    <g
       id="g9256"
       transform="translate(0.36486487,1.0945946)">
      <rect
         style="fill:#fff6d5;stroke:#000000;stroke-width:0.281326"
         id="rect288"
         width="138.26746"
         height="84.449875"
         x="25.183836"
         y="106.54871"
         ry="3.4662144" />
      <path
         id="rect6042"
         style="fill:#ffffff;stroke:#000000;stroke-width:0.307386"
         d="m 12.517588,187.13264 v 1.55926 c 0,2.58438 1.545774,4.66529 3.465557,4.66529 H 172.65186 c 1.91979,0 3.46555,-2.08091 3.46555,-4.66529 v -1.55926 z" />
    </g>
    <g
       id="g9449"
       transform="translate(2.9189189,1.0945946)"
       style="fill:#ffffff;stroke-width:0.8;stroke-dasharray:none">
      <g
         aria-label="Student   "
         transform="scale(0.82729869,1.2087533)"
         id="text9312"
         style="font-size:8.58247px;fill:#ffffff;stroke:#000000;stroke-width:0.8;stroke-dasharray:none">
        <path
           d="m 74.564983,118.86701 q -0.05448,-0.89261 -0.12572,-1.42901 0.469354,0.20953 0.833942,0.29334 0.368778,0.0796 0.645361,0.0796 0.364587,0 0.578311,-0.10477 0.217914,-0.10896 0.217914,-0.31849 0,-0.0712 -0.02095,-0.1341 -0.02095,-0.067 -0.07962,-0.14667 -0.05867,-0.0838 -0.167626,-0.1802 l -0.787844,-0.68727 q -0.276583,-0.23468 -0.38554,-0.33944 -0.222105,-0.21373 -0.347825,-0.39812 -0.121529,-0.18439 -0.180199,-0.37296 -0.05448,-0.19278 -0.05448,-0.4065 0,-0.25563 0.088,-0.49869 0.09219,-0.24725 0.272393,-0.46097 0.180198,-0.21372 0.477735,-0.36878 0.297537,-0.15505 0.63698,-0.20953 0.339443,-0.0587 0.69984,-0.0587 0.708221,0 1.542163,0.16344 0.01257,0.28915 0.02933,0.53221 0.01676,0.23887 0.07962,0.84232 -0.385541,-0.15505 -0.704031,-0.21372 -0.31849,-0.0629 -0.548976,-0.0629 -0.326872,0 -0.544786,0.12153 -0.213724,0.12153 -0.213724,0.30173 0,0.0838 0.03353,0.16343 0.03352,0.0796 0.125719,0.18858 0.0922,0.10477 0.243059,0.23468 0.150863,0.12572 0.473544,0.37716 l 0.301728,0.23886 q 0.134101,0.10896 0.289155,0.26402 0.155054,0.15505 0.268202,0.30591 0.113148,0.15087 0.171817,0.27659 0.06286,0.12572 0.0922,0.25563 0.02933,0.12572 0.02933,0.27239 0,0.37716 -0.180198,0.72079 -0.180198,0.33945 -0.51126,0.56155 -0.331062,0.21792 -0.729175,0.30592 -0.393922,0.088 -0.833941,0.088 -0.678887,0 -1.71398,-0.19696 z"
           style="font-family:'Eras Bold ITC';-inkscape-font-specification:'Eras Bold ITC';fill:#ffffff;stroke-width:0.8;stroke-dasharray:none"
           id="path9387" />
        <path
           d="m 82.42666,117.72296 q -0.07543,0.35202 -0.12991,0.68727 l -0.0922,0.51126 q -0.414875,0.0922 -0.649552,0.11734 -0.230486,0.0251 -0.448401,0.0251 -0.356206,0 -0.632789,-0.0629 -0.276584,-0.0587 -0.460973,-0.21791 -0.184389,-0.16344 -0.251439,-0.37297 -0.06705,-0.20953 -0.06705,-0.44421 0,-0.0419 0.0042,-0.14667 0.0042,-0.10896 0.02933,-0.47774 l 0.0922,-1.44996 h -0.653743 q 0.02095,-0.28916 0.03772,-0.7627 l 0.01257,-0.38974 h 0.695649 q 0.02514,-0.19277 0.06286,-0.84232 l 0.716603,-0.14667 q 0.196961,-0.0377 0.838132,-0.19277 -0.02934,0.54897 -0.04191,1.18176 h 0.955471 q -0.03353,0.87166 -0.03353,1.15244 h -0.963851 l -0.05029,1.04766 q -0.0084,0.23468 -0.0084,0.30173 0,0.20115 0.04191,0.33525 0.0461,0.1341 0.155054,0.19277 0.113148,0.0587 0.247249,0.0587 0.100576,0 0.209533,-0.0126 0.108957,-0.0168 0.385541,-0.0922 z"
           style="font-family:'Eras Bold ITC';-inkscape-font-specification:'Eras Bold ITC';fill:#ffffff;stroke-width:0.8;stroke-dasharray:none"
           id="path9389" />
        <path
           d="m 87.652412,118.95502 q -0.477736,-0.008 -0.796226,-0.008 -0.393922,0 -0.792034,0.008 l -0.0042,-0.57412 q -0.150864,0.18858 -0.25563,0.28496 -0.104767,0.0922 -0.230486,0.16344 -0.121529,0.0712 -0.276584,0.12572 -0.150864,0.0503 -0.352015,0.0796 -0.196961,0.0293 -0.402304,0.0293 -0.331062,0 -0.628598,-0.0796 -0.293347,-0.0754 -0.519642,-0.25982 -0.222105,-0.18439 -0.305918,-0.41907 -0.07962,-0.23467 -0.07962,-0.54478 0,-0.0754 0.01257,-0.23468 l 0.06705,-0.95128 q 0.02933,-0.52383 0.05448,-1.16081 0.01676,-0.38973 0.01676,-0.73756 0.519642,0.008 0.884229,0.008 0.368778,0 0.812988,-0.008 l -0.129911,1.59665 q -0.02933,0.36458 -0.03353,0.49868 0,0.12991 0,0.17601 0,0.44002 0.176008,0.59507 0.180198,0.15506 0.427447,0.15506 0.100576,0 0.201152,-0.0293 0.100576,-0.0293 0.19277,-0.0838 0.07962,-0.0503 0.146673,-0.12572 0.07124,-0.0796 0.12572,-0.19277 0.06705,-0.13829 0.100576,-0.29754 0.0461,-0.2221 0.07124,-0.56154 0.01676,-0.24725 0.0461,-0.8549 l 0.03352,-0.87585 q 0.540596,0.008 0.88842,0.008 0.389732,0 0.783653,-0.008 -0.09639,1.06443 -0.150863,2.02409 -0.05448,0.95966 -0.08381,2.25458 z"
           style="font-family:'Eras Bold ITC';-inkscape-font-specification:'Eras Bold ITC';fill:#ffffff;stroke-width:0.8;stroke-dasharray:none"
           id="path9391" />
        <path
           d="m 93.318183,118.95502 q -0.448401,-0.008 -0.745938,-0.008 -0.335252,0 -0.812988,0.008 l 0.02514,-0.53222 q -0.163435,0.15925 -0.284964,0.25982 -0.12153,0.0964 -0.3143,0.18858 -0.18858,0.0922 -0.410684,0.14249 -0.217915,0.0503 -0.452592,0.0503 -0.402303,0 -0.754318,-0.14667 -0.347825,-0.14667 -0.595074,-0.41487 -0.247249,-0.2724 -0.368778,-0.64117 -0.121529,-0.37297 -0.121529,-0.77109 0,-0.56574 0.222105,-1.10633 0.222105,-0.5406 0.578311,-0.8507 0.360397,-0.31011 0.808797,-0.43583 0.452591,-0.12991 0.976424,-0.12991 0.347824,0 0.812988,0.0629 0.03352,-0.49869 0.0461,-1.39549 0.515451,0.008 0.842322,0.008 0.423257,0 0.854895,-0.008 -0.121529,1.24462 -0.213724,3.03823 -0.09219,1.7936 -0.09219,2.68202 z m -1.496066,-3.23519 q -0.222105,-0.0503 -0.419066,-0.0503 -0.406494,0 -0.691458,0.15925 -0.284965,0.15505 -0.44002,0.4903 -0.150863,0.33106 -0.150863,0.65375 0,0.24305 0.08381,0.44001 0.088,0.19277 0.264011,0.30592 0.180199,0.11315 0.398113,0.11315 0.230486,0 0.419066,-0.12991 0.19277,-0.12991 0.310109,-0.38135 0.121529,-0.25144 0.163435,-0.59507 0.0461,-0.34783 0.06286,-1.00576 z"
           style="font-family:'Eras Bold ITC';-inkscape-font-specification:'Eras Bold ITC';fill:#ffffff;stroke-width:0.8;stroke-dasharray:none"
           id="path9393" />
        <path
           d="m 98.409834,117.68944 q -0.05448,0.25144 -0.209533,1.21529 -0.486116,0.0964 -0.817178,0.12572 -0.331063,0.0335 -0.670506,0.0335 -0.498688,0 -0.917754,-0.0712 -0.419066,-0.067 -0.724984,-0.24306 -0.301728,-0.176 -0.50707,-0.43582 -0.205342,-0.26402 -0.3143,-0.62441 -0.104766,-0.3604 -0.104766,-0.74175 0,-0.5364 0.213724,-1.04766 0.213723,-0.51545 0.548976,-0.80461 0.339443,-0.28916 0.779463,-0.41068 0.440019,-0.12153 0.900991,-0.12153 0.477735,0 0.909373,0.11314 0.435829,0.10896 0.737556,0.38554 0.301728,0.27659 0.427448,0.62441 0.12991,0.34783 0.12991,0.75013 0,0.23887 -0.05448,0.53221 l -2.937652,0.004 q -0.0042,0.067 -0.0042,0.12152 0,0.4526 0.32268,0.66632 0.322681,0.21372 0.787844,0.21372 0.276584,0 0.628599,-0.0629 0.356206,-0.0671 0.875848,-0.2221 z m -2.577255,-1.35778 h 1.382917 q 0.0042,-0.0712 0.0042,-0.12152 0,-0.21792 -0.07962,-0.37297 -0.07543,-0.15506 -0.222105,-0.2263 -0.142482,-0.0712 -0.32268,-0.0712 -0.12572,0 -0.243059,0.0419 -0.117338,0.0377 -0.213723,0.11733 -0.0922,0.0754 -0.155055,0.17601 -0.06286,0.10058 -0.09219,0.19696 -0.02934,0.0922 -0.05867,0.25982 z"
           style="font-family:'Eras Bold ITC';-inkscape-font-specification:'Eras Bold ITC';fill:#ffffff;stroke-width:0.8;stroke-dasharray:none"
           id="path9395" />
        <path
           d="m 99.298254,118.95502 q 0.121529,-0.95128 0.184389,-2.09952 0.06705,-1.15243 0.07962,-2.17915 0.502877,0.008 0.867467,0.008 0.42326,0 0.81299,-0.008 l -0.0419,0.56993 q 0.13829,-0.15505 0.23887,-0.24305 0.10058,-0.0922 0.24725,-0.17601 0.15086,-0.088 0.31849,-0.14248 0.16763,-0.0545 0.36459,-0.0838 0.20115,-0.0335 0.41906,-0.0335 0.30173,0 0.58669,0.067 0.28916,0.0629 0.48193,0.18439 0.19277,0.11733 0.32268,0.29753 0.12991,0.17601 0.17182,0.38135 0.0419,0.20535 0.0419,0.42326 0,0.15924 -0.0335,0.68727 l -0.0712,1.51702 q -0.021,0.4484 -0.021,0.82975 -0.42326,-0.008 -0.79204,-0.008 -0.49869,0 -0.90937,0.008 0.0377,-0.38135 0.0796,-1.13148 0.0419,-0.75432 0.0419,-1.06024 0,-0.47354 -0.18439,-0.65793 -0.1802,-0.18858 -0.45678,-0.18858 -0.24306,0 -0.46098,0.15924 -0.21372,0.15925 -0.33106,0.46517 -0.11734,0.30172 -0.16762,0.99737 -0.0461,0.69565 -0.0629,1.41645 -0.41907,-0.008 -0.81718,-0.008 -0.419071,0 -0.909378,0.008 z"
           style="font-family:'Eras Bold ITC';-inkscape-font-specification:'Eras Bold ITC';fill:#ffffff;stroke-width:0.8;stroke-dasharray:none"
           id="path9397" />
        <path
           d="m 108.29141,117.72296 q -0.0754,0.35202 -0.12991,0.68727 l -0.0922,0.51126 q -0.41487,0.0922 -0.64955,0.11734 -0.23049,0.0251 -0.4484,0.0251 -0.35621,0 -0.63279,-0.0629 -0.27658,-0.0587 -0.46097,-0.21791 -0.18439,-0.16344 -0.25144,-0.37297 -0.067,-0.20953 -0.067,-0.44421 0,-0.0419 0.004,-0.14667 0.004,-0.10896 0.0293,-0.47774 l 0.0922,-1.44996 h -0.65375 q 0.021,-0.28916 0.0377,-0.7627 l 0.0126,-0.38974 h 0.69565 q 0.0251,-0.19277 0.0629,-0.84232 l 0.7166,-0.14667 q 0.19697,-0.0377 0.83814,-0.19277 -0.0293,0.54897 -0.0419,1.18176 h 0.95547 q -0.0335,0.87166 -0.0335,1.15244 h -0.96385 l -0.0503,1.04766 q -0.008,0.23468 -0.008,0.30173 0,0.20115 0.0419,0.33525 0.0461,0.1341 0.15505,0.19277 0.11315,0.0587 0.24725,0.0587 0.10058,0 0.20954,-0.0126 0.10895,-0.0168 0.38554,-0.0922 z"
           style="font-family:'Eras Bold ITC';-inkscape-font-specification:'Eras Bold ITC';fill:#ffffff;stroke-width:0.8;stroke-dasharray:none"
           id="path9399" />
      </g>
      <g
         aria-label="Central"
         transform="scale(0.8957253,1.1164137)"
         id="text9376"
         style="font-size:12.0414px;font-family:'Eras Bold ITC';-inkscape-font-specification:'Eras Bold ITC';fill:#ffffff;stroke:#000000;stroke-width:0.8;stroke-dasharray:none">
        <path
           d="m 90.521908,138.29442 q -1.170038,0.69968 -2.728129,0.69968 -1.981422,0 -3.127942,-1.22884 -1.14652,-1.22883 -1.14652,-3.36312 0,-2.16369 1.099483,-3.35137 1.105363,-1.19356 3.110303,-1.19356 0.529163,0 1.205316,0.11171 0.676153,0.10584 1.505175,0.32338 v 1.59337 H 89.78696 l -0.105833,-0.8937 q -0.476247,-0.28222 -0.940734,-0.41745 -0.458608,-0.14111 -0.911337,-0.14111 -1.364065,0 -2.187207,1.09949 -0.817263,1.09948 -0.817263,2.92803 0,1.71096 0.911336,2.81632 0.911337,1.09949 2.328318,1.09949 1.334667,0 2.457668,-0.76435 z"
           style="font-family:'Lucida Fax';-inkscape-font-specification:'Lucida Fax';fill:#ffffff;stroke-width:0.8;stroke-dasharray:none"
           id="path9418" />
        <path
           d="m 97.22464,138.48845 q -1.105362,0.43509 -2.028458,0.43509 -1.399342,0 -2.275401,-0.94661 -0.876059,-0.9525 -0.876059,-2.45767 0,-1.4405 0.787865,-2.35184 0.787865,-0.91721 2.022579,-0.91721 1.14064,0 1.752117,0.77022 0.617357,0.77023 0.617357,2.20485 v 0.21754 h -3.945204 q 0,1.25824 0.552681,1.96967 0.552682,0.71143 1.534573,0.71143 0.946614,0 1.85795,-0.50565 z m -3.874649,-3.62771 h 2.645815 v -0.14699 q 0,-1.88734 -1.205316,-1.88734 -0.658514,0 -1.017169,0.51152 -0.358655,0.50564 -0.42333,1.52281 z"
           style="font-family:'Lucida Fax';-inkscape-font-specification:'Lucida Fax';fill:#ffffff;stroke-width:0.8;stroke-dasharray:none"
           id="path9420" />
        <path
           d="m 100.71124,133.59075 q 0.44097,-0.67027 1.01717,-1.00541 0.5762,-0.33513 1.28763,-0.33513 0.82314,0 1.28763,0.54092 0.47036,0.54092 0.47036,1.48753 v 3.91581 h 0.87018 v 0.58208 h -2.89863 v -0.58208 h 0.87017 v -3.73354 q 0,-0.74671 -0.22342,-1.04069 -0.21754,-0.29986 -0.77611,-0.29986 -0.48212,0 -0.95837,0.25283 -0.47625,0.25282 -0.94661,0.75846 v 4.0628 h 0.87018 v 0.58208 h -2.898641 v -0.58208 h 0.870179 v -5.22107 h -0.870179 v -0.58208 h 2.028461 z"
           style="font-family:'Lucida Fax';-inkscape-font-specification:'Lucida Fax';fill:#ffffff;stroke-width:0.8;stroke-dasharray:none"
           id="path9422" />
        <path
           d="m 110.32437,138.74127 q -0.42921,0.18227 -0.87606,0.18227 -0.98777,0 -1.45226,-0.5174 -0.46449,-0.51741 -0.46449,-1.62277 v -3.73942 h -0.87018 v -0.65263 h 0.87018 v -1.15828 l 1.16416,-0.2881 v 1.44638 h 1.62865 v 0.65263 h -1.62865 v 3.89229 q 0,0.66439 0.23518,0.99953 0.23519,0.33514 0.69967,0.33514 0.29986,0 0.6938,-0.18227 z"
           style="font-family:'Lucida Fax';-inkscape-font-specification:'Lucida Fax';fill:#ffffff;stroke-width:0.8;stroke-dasharray:none"
           id="path9424" />
        <path
           d="m 113.40527,134.13167 v 4.0628 h 0.87018 v 0.58208 h -2.90452 v -0.58208 h 0.87018 v -5.22107 h -0.87018 v -0.58208 h 2.03434 v 1.19943 q 0.78199,-1.34054 2.08138,-1.34054 0.19402,0 0.38217,0.0705 v 1.59337 h -0.72319 v -0.65263 h -0.18815 q -0.74671,0 -1.55221,0.87017 z"
           style="font-family:'Lucida Fax';-inkscape-font-specification:'Lucida Fax';fill:#ffffff;stroke-width:0.8;stroke-dasharray:none"
           id="path9426" />
        <path
           d="m 120.85471,137.90049 q -0.5174,0.51153 -1.02893,0.77023 -0.51152,0.25282 -1.01717,0.25282 -0.81138,0 -1.3523,-0.51152 -0.54092,-0.51741 -0.54092,-1.29351 0,-1.05833 0.85842,-1.58161 0.85842,-0.52917 2.57526,-0.52917 h 0.24106 v -0.78786 q 0,-1.39346 -1.18768,-1.39346 -0.69967,0 -1.28175,0.52328 l -0.0705,0.64087 h -0.65264 v -1.20531 q 1.22884,-0.53504 2.26952,-0.53504 2.08138,0 2.08138,1.91086 v 2.84572 q 0,1.18768 0.58796,1.18768 0.11171,0 0.28222,-0.0412 l 0.0764,0.62324 q -0.42333,0.14699 -0.75258,0.14699 -0.85842,0 -1.08773,-1.02305 z m -0.26458,-0.3175 v -1.99906 h -0.27634 q -1.08184,0 -1.62277,0.3469 -0.54092,0.34102 -0.54092,1.03481 0,0.49976 0.32338,0.82902 0.32338,0.32926 0.81726,0.32926 0.27634,0 0.59972,-0.13523 0.32338,-0.13524 0.69967,-0.4057 z"
           style="font-family:'Lucida Fax';-inkscape-font-specification:'Lucida Fax';fill:#ffffff;stroke-width:0.8;stroke-dasharray:none"
           id="path9428" />
        <path
           d="m 125.6701,129.49268 v 8.70179 h 0.87018 v 0.58208 h -2.89864 v -0.58208 h 0.87018 v -8.11971 h -0.87018 v -0.58208 z"
           style="font-family:'Lucida Fax';-inkscape-font-specification:'Lucida Fax';fill:#ffffff;stroke-width:0.8;stroke-dasharray:none"
           id="path9430" />
      </g>
    </g>
    <text
       xmlSpace="preserve"
       style="font-style:italic;font-variant:normal;font-weight:normal;font-stretch:normal;font-size:2.82222px;font-family:'Lucida Fax';-inkscape-font-specification:'Lucida Fax Italic';fill:#fff6d5;stroke:#000000;stroke-width:0.264999"
       x="97.946114"
       y="182.7973"
       id="text9453"><tspan
         sodipodiRole="line"
         id="tspan9451"
         style="font-style:italic;font-variant:normal;font-weight:300;font-stretch:normal;font-size:2.82222px;font-family:Corbel;-inkscape-font-specification:'Corbel Light Italic';text-align:center;text-anchor:middle;stroke-width:0.265"
         x="97.946114"
         y="182.7973">All your learning in</tspan><tspan
         sodipodiRole="line"
         style="font-style:italic;font-variant:normal;font-weight:300;font-stretch:normal;font-size:2.82222px;font-family:Corbel;-inkscape-font-specification:'Corbel Light Italic';text-align:center;text-anchor:middle;stroke-width:0.265"
         x="97.946114"
         y="186.45558"
         id="tspan9455">one place</tspan></text>
  </g>
</svg>
